# xmcd
#
# Track frame offsets:
#	150
#	14105
#	31178
#	54129
#	71291
#	86061
#	105066
#	121859
#	140134
#	157891
#
# Disc length: 2296 seconds
#
# Revision: 0
# Processed by: cddbd v1.4PL0 Copyright (c) Steve Scherf et al.
# Submitted via: EasyCDDAExtractor 4.6.9.1
#
DISCID=7308f60a
DTITLE=Kenny Rogers - She Rides Wild Horses
DYEAR=1900
DGENRE=Country
TTITLE0=Slow Dance More
TTITLE1=Buy Me A rose
TTITLE2=I Will Remember You
TTITLE3=Love Don't Live Here Any More
TTITLE4=She Rides Wild Horses
TTITLE5=The Kind Of Fool Love Makes
TTITLE6=Loving Arms
TTITLE7=I Can't Make You Love Me
TTITLE8=Let It Be Me
TTITLE9=The Greatest
EXTD=
EXTT0=
EXTT1=
EXTT2=
EXTT3=
EXTT4=
EXTT5=
EXTT6=
EXTT7=
EXTT8=
EXTT9=
PLAYORDER=
